<svg id="Layer_1" data-name="Layer 1" xmlns="http://www.w3.org/2000/svg" viewBox="0 0 1040 1024"><path d="M1002.77,378.64c-2.34,15.16-4.41,30.37-7,45.47-9.51,54.41-29.67,104.95-56.64,152.87-47.79,84.88-112.47,155.54-185.49,219.07C685.79,855,612.38,906,534,949.85c-9.87,5.52-18.24,5.54-28.11,0C402.68,892.14,308.2,822.83,225,738.73,162.38,675.51,109.23,605.44,74.1,523,47.64,460.9,32.8,396.43,38.41,328.51c5.65-68.35,33.75-126.91,80.83-176.26,34.29-35.92,75.24-61.38,123.65-74.08,53.86-14.13,106.48-9.59,157.83,11,47.17,18.94,86.12,48.75,116.24,89.88a37.25,37.25,0,0,0,2.58,2.81c9.69-11,18.58-22.37,28.72-32.45C600.11,97.84,662.84,70.6,735.92,70.14c64.34-.41,120.29,23.69,168,66.09,50.18,44.63,81.83,100.34,94.26,166.59,1.9,10.11,3.1,20.36,4.62,30.54Zm-32.08-34.56C969.11,268.91,934.26,197.86,864,145.17c-38-28.5-81.4-44.06-129.09-42.76C649.09,104.75,583,143.18,537.09,215.85c-10.91,17.27-23.8,17.38-34.44-.16-14.49-23.88-32.24-45-54.33-62.09-57.39-44.43-122-62.41-193-45.34C156.11,132.09,79,225.55,70.56,327.51,65.84,385,76.31,440.11,96.72,493.57c27.05,70.82,69.08,132.35,119.54,188.23,86.09,95.32,187.13,172,298.27,235.66,2.77,1.59,8,1.52,10.84-.07a1261.88,1261.88,0,0,0,215.9-154.12C805,706.63,862.35,644.42,905.81,570.46,944.63,504.4,969,433.92,970.69,344.08Z"/></svg>